<?xml version="1.0" standalone="no"?>
<!DOCTYPE svg PUBLIC "-//W3C//DTD SVG 20010904//EN"
 "http://www.w3.org/TR/2001/REC-SVG-20010904/DTD/svg10.dtd">
<svg version="1.0" xmlns="http://www.w3.org/2000/svg"
 width="5824.000000pt" height="3264.000000pt" viewBox="0 0 5824.000000 3264.000000"
 preserveAspectRatio="xMidYMid meet">

<g transform="translate(0.000000,3264.000000) scale(0.100000,-0.100000)"
fill="#000000" stroke="none">
<path d="M0 16320 l0 -16320 29120 0 29120 0 0 16320 0 16320 -29120 0 -29120
0 0 -16320z m31280 2780 c0 -17 -7 -20 -40 -20 -33 0 -40 3 -40 20 0 17 7 20
40 20 33 0 40 -3 40 -20z m160 0 c0 -23 -10 -26 -28 -8 -18 18 -15 28 8 28 13
0 20 -7 20 -20z m-361 -24 l23 -24 -23 -26 c-12 -14 -26 -26 -31 -26 -4 0 -8
23 -8 50 0 28 4 50 8 50 5 0 19 -11 31 -24z m-519 -16 c0 -17 -7 -20 -45 -20
-48 0 -48 0 -39 24 4 11 19 16 45 16 32 0 39 -3 39 -20z m828 8 c18 -18 15
-28 -8 -28 -13 0 -20 7 -20 20 0 23 10 26 28 8z m212 -8 c0 -17 -7 -20 -40
-20 -33 0 -40 3 -40 20 0 17 7 20 40 20 33 0 40 -3 40 -20z m-1320 -28 c0 -10
-22 -32 -32 -32 -4 0 -8 9 -8 20 0 13 7 20 20 20 11 0 20 -4 20 -8z m360 -12
c0 -23 -10 -26 -28 -8 -18 18 -15 28 8 28 13 0 20 -7 20 -20z m240 -20 l0 -40
80 0 c47 0 80 -4 80 -10 0 -5 18 -10 40 -10 22 0 40 5 40 10 0 6 47 10 120 10
73 0 120 -4 120 -10 0 -5 18 -10 40 -10 22 0 40 5 40 10 0 6 -18 10 -40 10
-33 0 -40 3 -40 20 0 18 7 20 80 20 73 0 80 -2 80 -20 0 -18 7 -20 80 -20 73
0 80 2 80 20 0 17 7 20 40 20 33 0 40 -3 40 -20 0 -20 7 -20 280 -20 l280 0 0
-40 0 -40 40 0 c22 0 40 -4 40 -10 0 -5 18 -10 40 -10 22 0 40 5 40 10 0 6 18
10 40 10 l40 0 0 40 0 40 40 0 40 0 0 -50 0 -50 40 0 c22 0 40 5 40 10 0 6 47
10 120 10 113 0 120 1 120 20 0 17 7 20 40 20 33 0 40 -3 40 -20 0 -19 7 -20
120 -20 l120 0 0 -40 0 -40 40 0 c33 0 40 3 40 20 0 17 7 20 40 20 33 0 40 -3
40 -20 0 -17 7 -20 40 -20 33 0 40 3 40 20 0 17 7 20 40 20 33 0 40 3 40 20 0
13 7 20 20 20 11 0 20 -4 20 -10 0 -5 -9 -15 -20 -22 -16 -10 -20 -24 -20 -70
l0 -58 80 0 c47 0 80 -4 80 -10 0 -5 18 -10 40 -10 22 0 40 5 40 10 0 6 30 10
70 10 l70 0 0 -80 c0 -47 4 -80 10 -80 6 0 10 33 10 80 l0 80 40 0 c33 0 40 3
40 20 0 17 7 20 40 20 33 0 40 -3 40 -20 0 -17 -7 -20 -40 -20 l-40 0 0 -50 0
-50 40 0 c38 0 40 2 40 30 0 28 2 30 40 30 38 0 40 -2 40 -30 0 -28 2 -30 40
-30 38 0 40 -2 40 -30 l0 -30 120 0 c73 0 120 -4 120 -10 0 -6 33 -10 80 -10
47 0 80 4 80 10 0 6 18 10 40 10 l40 0 0 -40 0 -40 -40 0 c-22 0 -40 -4 -40
-10 0 -6 47 -10 120 -10 l120 0 0 -70 c0 -40 4 -70 10 -70 6 0 10 18 10 40 l0
40 110 0 c103 0 110 1 110 20 0 17 7 20 40 20 33 0 40 -3 40 -20 0 -13 7 -20
20 -20 24 0 27 -32 5 -50 -13 -11 -20 -7 -45 19 -32 33 -60 41 -60 16 0 -26
49 -65 83 -65 21 0 36 -7 45 -20 7 -11 17 -20 22 -20 6 0 10 9 10 20 0 11 -7
20 -15 20 -12 0 -12 3 3 18 17 18 18 18 38 0 11 -10 28 -18 37 -18 13 0 17 -9
17 -40 l0 -40 120 0 120 0 0 -40 0 -40 40 0 c22 0 40 -4 40 -10 0 -5 18 -10
40 -10 22 0 40 5 40 10 0 6 33 10 80 10 l80 0 0 40 c0 33 3 40 20 40 17 0 20
-7 20 -40 0 -22 5 -40 10 -40 6 0 10 -18 10 -40 0 -22 5 -40 10 -40 6 0 10
-18 10 -40 0 -23 5 -40 11 -40 8 0 10 17 6 53 -3 36 -1 58 9 72 14 19 14 19
29 -1 8 -10 15 -25 15 -31 0 -10 28 -13 105 -13 l105 0 0 -40 c0 -33 -3 -40
-20 -40 -11 0 -20 -4 -20 -10 0 -5 18 -10 40 -10 38 0 40 2 40 30 0 28 2 30
40 30 l40 0 0 -60 0 -60 80 0 80 0 0 40 0 40 40 0 40 0 0 -40 0 -40 40 0 c36
0 40 3 40 25 0 23 4 25 40 25 29 0 40 4 40 15 0 11 11 15 40 15 40 0 40 0 40
-39 0 -22 5 -41 13 -43 6 -2 42 -4 80 -3 l67 1 0 -38 0 -38 104 0 c83 0 105
-3 110 -15 4 -11 20 -15 56 -15 l50 0 0 -45 c0 -37 3 -45 18 -45 30 0 42 -21
42 -72 0 -26 5 -48 10 -48 6 0 10 18 10 40 l0 40 40 0 c33 0 40 -3 40 -20 0
-17 7 -20 40 -20 33 0 40 -3 40 -20 0 -17 7 -20 39 -20 33 0 40 4 43 23 2 18
10 23 41 25 24 2 37 8 37 18 0 23 39 16 64 -11 23 -25 26 -25 179 -25 l156 0
-6 -55 -6 -55 73 0 72 0 -4 -40 c-2 -22 0 -40 4 -40 5 0 8 -16 8 -36 0 -19 6
-42 14 -50 16 -16 86 -19 86 -4 0 6 8 10 18 10 9 0 23 9 30 20 18 29 32 25 32
-10 0 -28 2 -30 40 -30 22 0 40 -4 40 -10 0 -5 18 -10 40 -10 33 0 40 -3 40
-20 0 -18 7 -20 80 -20 47 0 80 -4 80 -10 0 -6 47 -10 120 -10 73 0 120 -4
120 -10 0 -16 237 -13 243 3 3 8 14 2 33 -17 19 -19 25 -30 17 -33 -18 -6 -16
-71 1 -89 12 -11 50 -14 180 -14 104 0 166 4 166 10 0 6 18 10 40 10 l40 0 0
-40 0 -40 40 0 c22 0 40 -4 40 -10 0 -5 18 -10 40 -10 22 0 40 -3 40 -7 0 -5
36 -7 80 -5 l80 4 0 39 c0 45 11 49 38 14 11 -14 25 -25 31 -25 6 0 11 -7 11
-15 0 -11 11 -15 40 -15 39 0 40 -1 40 -35 0 -34 1 -35 40 -35 22 0 40 5 40
10 0 6 18 10 40 10 l40 0 0 -40 0 -40 80 0 c47 0 80 -4 80 -10 0 -6 60 -10
160 -10 100 0 160 -4 160 -10 0 -5 18 -10 40 -10 33 0 40 -3 40 -20 0 -17 7
-20 40 -20 22 0 40 -4 40 -10 0 -6 33 -10 80 -10 47 0 80 -4 80 -10 0 -5 18
-10 40 -10 33 0 40 -3 40 -20 0 -17 7 -20 39 -20 22 0 41 -5 44 -12 3 -7 4 3
3 22 -1 33 1 35 37 38 24 2 37 8 37 18 0 10 12 14 40 14 l40 0 0 -40 0 -40 80
0 c64 0 80 3 80 15 0 11 11 15 40 15 38 0 40 -2 40 -30 0 -28 2 -30 40 -30 33
0 40 -3 40 -19 0 -38 11 -51 46 -51 19 0 34 -4 34 -10 0 -5 18 -10 40 -10 33
0 40 -3 40 -20 0 -17 7 -20 40 -20 22 0 40 -4 40 -10 0 -6 33 -10 80 -10 l80
0 0 -28 0 -27 117 0 c104 0 118 2 121 18 3 13 13 17 42 17 32 0 38 -4 42 -25
3 -14 1 -23 -6 -22 -6 1 -12 -15 -14 -35 l-3 -38 50 0 c44 0 51 3 51 20 0 17
7 20 40 20 33 0 40 -3 40 -20 0 -15 7 -20 29 -20 16 0 32 -6 35 -12 5 -10 7
-10 12 0 4 8 31 12 85 12 l79 0 0 -38 0 -37 122 0 123 0 -3 -42 -4 -43 41 0
c23 0 41 -4 41 -10 0 -6 33 -10 80 -10 l80 0 0 30 c0 28 2 30 40 30 l41 0 -3
-62 -3 -63 -32 0 c-17 0 -35 -3 -39 -7 -4 -5 11 -8 33 -8 26 0 43 5 46 14 6
16 69 14 75 -3 5 -14 82 -15 82 -1 0 6 33 10 80 10 l80 0 0 -40 0 -40 40 0
c33 0 40 -3 40 -20 0 -17 7 -20 40 -20 32 0 40 -4 40 -18 0 -26 73 -25 78 1 3
13 14 17 43 17 36 0 40 -2 37 -22 -2 -18 -9 -23 -35 -23 -17 0 -35 -3 -39 -7
-4 -5 11 -8 34 -8 23 0 42 -4 42 -10 0 -6 33 -10 80 -10 l80 0 0 -30 c0 -28 2
-30 40 -30 22 0 40 -4 40 -10 0 -5 18 -10 40 -10 33 0 40 -3 40 -20 0 -19 6
-20 82 -18 l83 3 -3 -42 -4 -43 41 0 c34 0 41 3 41 20 0 17 7 20 40 20 l40 0
0 -40 c0 -33 3 -40 20 -40 11 0 25 -9 32 -20 7 -11 16 -20 20 -20 5 0 8 9 8
20 0 27 12 25 38 -5 14 -16 22 -39 22 -60 0 -19 5 -35 10 -35 6 0 10 14 10 30
0 28 2 30 40 30 22 0 40 -4 40 -10 0 -5 18 -10 40 -10 l40 0 0 -40 0 -40 40 0
c28 0 40 -4 40 -14 0 -17 16 -23 53 -21 19 1 25 -1 17 -9 -13 -13 -13 -76 0
-76 6 0 10 9 10 20 0 17 7 20 40 20 33 0 40 -3 40 -20 0 -11 -4 -20 -10 -20
-15 0 -12 -70 4 -86 16 -16 86 -19 86 -4 0 6 27 10 60 10 l60 0 0 -40 c0 -33
-3 -40 -20 -40 -11 0 -20 -4 -20 -10 0 -6 33 -10 80 -10 l80 0 0 -70 0 -70 40
0 40 0 0 40 c0 33 3 40 20 40 17 0 20 -7 20 -40 l0 -40 40 0 40 0 0 -40 c0
-33 3 -40 20 -40 17 0 20 -7 20 -40 0 -33 -3 -40 -20 -40 -23 0 -26 -10 -8
-28 18 -18 28 -15 28 8 0 18 7 20 55 20 48 0 58 -4 85 -31 16 -18 30 -36 30
-40 0 -5 16 -9 35 -9 34 0 35 -1 35 -40 0 -33 3 -40 20 -40 17 0 20 -7 20 -40
0 -22 5 -40 10 -40 6 0 10 -47 10 -120 0 -73 4 -120 10 -120 6 0 10 33 10 80
l0 80 40 0 40 0 0 40 0 40 -40 0 c-33 0 -40 3 -40 20 0 17 7 20 40 20 29 0 40
-4 40 -15 0 -8 10 -17 23 -20 21 -6 22 -10 19 -85 -3 -71 -6 -80 -23 -80 -16
0 -19 -7 -19 -40 0 -40 0 -40 39 -40 39 0 40 -1 43 -37 3 -33 6 -38 28 -38 22
0 26 -5 32 -45 l6 -45 -1 48 c-1 28 2 46 8 44 6 -2 10 -39 10 -85 l0 -82 28 0
c25 0 27 -3 27 -40 0 -22 5 -40 10 -40 6 0 10 18 10 40 l0 40 40 0 c33 0 40 3
40 20 0 17 7 20 40 20 33 0 40 -3 40 -20 0 -17 -7 -20 -40 -20 l-40 0 0 -40
c0 -22 -4 -40 -10 -40 -6 0 -10 -33 -10 -80 l0 -80 50 0 50 0 0 -39 c0 -36 2
-38 29 -36 16 1 34 -1 41 -5 6 -4 -25 -6 -69 -5 l-81 2 0 -38 0 -39 80 0 80 0
0 -35 c0 -19 5 -36 10 -36 6 -1 41 -2 79 -3 38 0 72 -4 75 -7 3 -3 -13 -5 -37
-5 -41 1 -42 1 -45 -36 l-3 -38 40 0 41 0 0 -40 c0 -22 -4 -40 -10 -40 -5 0
-10 -18 -10 -40 l0 -40 40 0 40 0 0 -80 c0 -47 4 -80 10 -80 6 0 10 18 10 40
0 33 3 40 20 40 17 0 20 -7 20 -40 0 -22 5 -40 10 -40 6 0 10 -18 10 -40 0
-22 5 -40 10 -40 6 0 10 -33 10 -80 l0 -80 40 0 40 0 0 40 c0 33 3 40 20 40
17 0 20 -7 20 -39 0 -23 5 -41 13 -44 18 -6 -10 -37 -34 -37 -17 0 -19 -9 -19
-100 l0 -100 41 0 41 0 -4 98 c-2 53 -2 89 0 80 2 -12 13 -18 33 -18 27 0 29
-2 29 -40 0 -22 -4 -40 -10 -40 -5 0 -10 -18 -10 -40 0 -33 -3 -40 -20 -40
-17 0 -20 -7 -20 -40 l0 -40 40 0 c33 0 40 3 40 20 0 23 10 26 28 8 18 -18 15
-28 -8 -28 -18 0 -20 -7 -20 -80 l0 -80 40 0 c33 0 40 -3 40 -20 0 -17 7 -20
40 -20 33 0 40 -3 40 -20 0 -19 -7 -20 -120 -20 l-120 0 0 -40 0 -40 70 0 70
0 0 -40 0 -40 -80 0 -80 0 0 -40 c0 -38 -2 -40 -30 -40 -28 0 -30 -2 -30 -40
0 -33 4 -40 19 -40 15 0 20 -9 23 -41 4 -40 -12 -79 -33 -79 -5 0 -9 9 -9 20
0 13 -7 20 -20 20 -18 0 -20 -7 -20 -80 0 -73 -2 -80 -20 -80 -18 0 -20 -7
-20 -79 0 -54 -4 -80 -12 -83 -7 -3 -50 -4 -95 -3 l-83 2 0 -79 c0 -63 3 -78
15 -78 22 0 19 -36 -5 -60 -24 -24 -85 -27 -94 -5 -8 21 -44 19 -49 -2 -3 -10
-5 0 -6 22 l-1 40 -75 0 -75 0 0 -62 0 -63 -40 0 c-29 0 -40 -4 -40 -15 0 -8
7 -15 15 -15 11 0 15 -11 15 -40 l0 -40 -55 0 c-44 0 -55 3 -55 16 0 17 -22
14 -28 -4 -2 -7 3 -12 12 -12 9 0 16 -4 16 -9 0 -12 -59 -71 -71 -71 -5 0 -9
-9 -9 -19 0 -14 -5 -18 -21 -14 -11 3 -23 12 -26 19 -3 8 -11 14 -19 14 -8 0
-14 7 -14 16 0 17 -22 14 -28 -4 -2 -7 3 -12 12 -12 12 0 16 -10 16 -40 0 -23
-5 -40 -11 -40 -6 0 -20 -11 -31 -25 -11 -14 -24 -25 -29 -25 -5 0 -9 11 -9
25 0 23 -4 25 -40 25 -29 0 -40 -4 -40 -15 0 -11 -12 -15 -47 -15 -29 0 -53
-6 -65 -17 -25 -22 -23 -33 7 -33 16 0 25 -6 25 -15 0 -12 -16 -15 -80 -15
-64 0 -80 3 -80 15 0 11 -11 15 -40 15 -36 0 -40 -2 -40 -25 0 -24 -3 -25 -60
-25 -45 0 -62 -4 -66 -15 -4 -10 -20 -15 -44 -15 -24 0 -40 -5 -44 -15 -3 -8
-10 -15 -16 -15 -5 0 -10 7 -10 15 0 11 -11 15 -40 15 -36 0 -40 -2 -40 -25 0
-22 -4 -25 -40 -25 -38 0 -40 -2 -40 -30 0 -28 -2 -30 -40 -30 l-40 0 0 55 c0
42 -3 55 -15 55 -11 0 -15 -12 -15 -47 0 -80 -6 -83 -202 -83 l-168 0 0 -30
c0 -28 -2 -30 -40 -30 -36 0 -40 -2 -40 -25 0 -22 -4 -25 -40 -25 -29 0 -40 4
-40 15 0 11 -11 15 -40 15 -29 0 -40 -4 -40 -15 0 -12 -16 -15 -80 -15 -64 0
-80 -3 -80 -15 0 -12 -16 -15 -80 -15 -47 0 -80 -4 -80 -10 0 -5 -18 -10 -40
-10 -29 0 -40 -4 -40 -15 0 -12 -14 -15 -65 -15 l-65 0 0 -40 c0 -29 -4 -40
-15 -40 -8 0 -15 7 -15 15 0 11 -11 15 -40 15 -29 0 -40 -4 -40 -15 0 -11 -11
-15 -40 -15 -29 0 -40 4 -40 15 0 12 -16 15 -80 15 -64 0 -80 -3 -80 -15 0 -8
7 -15 15 -15 11 0 15 -11 15 -40 0 -29 -4 -40 -15 -40 -8 0 -15 7 -15 15 0 11
-11 15 -40 15 -29 0 -40 -4 -40 -15 0 -11 -11 -15 -40 -15 -29 0 -40 4 -40 15
0 13 -29 15 -200 15 l-200 0 0 -30 0 -30 -80 0 c-47 0 -80 -4 -80 -10 0 -5
-18 -10 -40 -10 -22 0 -40 5 -40 10 0 6 -18 10 -40 10 -22 0 -40 -4 -40 -10 0
-6 -33 -10 -80 -10 -70 0 -80 -2 -80 -18 0 -14 -7 -17 -40 -14 -26 3 -40 9
-40 18 0 11 -18 14 -80 14 -64 0 -80 -3 -80 -15 0 -13 -24 -15 -160 -15 -100
0 -160 -4 -160 -10 0 -14 -78 -12 -82 2 -3 8 -13 5 -33 -10 -34 -27 -45 -28
-45 -2 0 19 -7 20 -96 20 -81 0 -100 -3 -121 -20 -24 -19 -41 -20 -264 -20
-232 0 -239 1 -239 20 0 17 -7 20 -40 20 -33 0 -40 -3 -40 -20 0 -17 -7 -20
-40 -20 -33 0 -40 3 -40 20 0 19 -7 20 -120 20 l-120 0 0 -59 0 -59 -80 -7
c-58 -5 -80 -11 -80 -21 0 -11 -30 -14 -160 -14 -100 0 -160 4 -160 10 0 6
-33 10 -80 10 -47 0 -80 -4 -80 -10 0 -6 33 -10 80 -10 73 0 80 -2 80 -20 0
-19 -7 -20 -120 -20 -113 0 -120 1 -120 20 0 18 -7 20 -80 20 -66 0 -78 -2
-74 -15 4 -8 1 -15 -5 -15 -6 0 -11 6 -11 13 0 8 -13 13 -35 13 -27 0 -35 -4
-35 -18 0 -17 -15 -18 -200 -18 -127 0 -200 -4 -200 -10 0 -6 -60 -10 -160
-10 -100 0 -160 -4 -160 -10 0 -6 -33 -10 -80 -10 -47 0 -80 -4 -80 -10 0 -6
-33 -10 -79 -10 -43 0 -94 -6 -112 -13 -36 -15 -129 -11 -129 4 0 5 -18 9 -40
9 -22 0 -40 -4 -40 -10 0 -6 -47 -10 -120 -10 -73 0 -120 -4 -120 -10 0 -5
-18 -10 -40 -10 -22 0 -40 5 -40 10 0 6 -60 10 -160 10 -100 0 -160 -4 -160
-10 0 -5 -18 -10 -40 -10 -22 0 -40 5 -40 10 0 13 -381 13 -569 -1 -100 -7
-146 -7 -151 1 -3 6 -40 9 -86 8 -200 -4 -394 2 -394 12 0 5 -18 10 -40 10
-22 0 -40 5 -40 10 0 6 -18 10 -40 10 -22 0 -40 -4 -40 -10 0 -6 -33 -10 -80
-10 -47 0 -80 4 -80 10 0 6 -18 10 -39 10 -22 0 -41 5 -44 13 -2 7 -8 8 -13 3
-5 -5 -4 -11 4 -13 26 -10 10 -23 -28 -23 -29 0 -40 4 -40 15 0 14 -25 15
-200 11 -150 -4 -200 -2 -200 7 0 9 -23 11 -80 9 -52 -2 -80 0 -80 7 0 7 -28
11 -75 11 -53 0 -75 -4 -75 -12 0 -10 -2 -10 -8 -1 -6 10 -77 13 -285 13 -228
1 -277 3 -277 15 0 10 -25 15 -100 20 -55 4 -103 7 -107 7 -5 0 -13 4 -20 9
-7 6 -12 6 -15 0 -1 -5 -20 -12 -40 -16 -34 -6 -38 -5 -38 13 0 16 -9 20 -52
25 -29 3 -100 4 -158 2 -58 -1 -70 0 -27 2 47 2 77 8 77 15 0 8 -35 9 -120 5
-103 -6 -120 -5 -120 8 0 8 -9 15 -21 15 -12 0 -17 -4 -13 -11 9 -15 -100 -1
-135 17 -14 8 -32 14 -38 14 -21 0 -14 17 9 23 26 7 23 12 -14 21 -21 5 -28 3
-28 -9 0 -12 -16 -15 -90 -15 -79 0 -91 2 -102 20 -10 16 -24 20 -70 20 -43 0
-58 4 -58 14 0 9 -7 12 -20 9 -11 -3 -20 -9 -20 -13 0 -11 -62 -6 -84 6 -10 6
-38 9 -62 6 -40 -4 -43 -3 -50 22 -5 22 -12 26 -40 26 -20 0 -48 9 -65 23 -25
18 -48 23 -127 27 l-97 5 2 28 c2 25 1 26 -15 11 -10 -11 -16 -33 -16 -66 0
-40 -2 -45 -9 -26 -5 12 -6 67 -2 120 4 54 6 148 6 210 0 62 4 119 8 127 8 12
74 15 373 18 199 3 380 9 400 14 27 7 45 21 63 47 62 91 162 172 333 271 40
24 76 49 79 56 3 8 -22 41 -61 79 -36 35 -66 70 -67 78 -1 7 0 42 0 78 4 149
-29 470 -64 634 -58 263 -76 304 -149 337 -23 10 -131 41 -241 69 -110 28
-247 64 -305 80 -58 17 -148 39 -200 50 -196 42 -394 80 -402 78 -5 -2 67 -21
159 -42 379 -86 473 -111 628 -166 29 -10 29 -10 -7 -5 -38 6 -93 -3 -83 -13
6 -6 -61 -32 -83 -32 -8 0 -21 -9 -30 -19 -53 -62 -280 -69 -522 -16 -36 7
-99 19 -140 25 -41 6 -111 17 -155 26 -172 32 -277 45 -445 54 -288 16 -470
30 -555 41 -44 5 -257 13 -474 16 l-395 6 -57 42 c-63 46 -79 53 -194 85 -215
59 -628 210 -614 225 3 2 24 0 47 -6 50 -11 159 -20 222 -18 60 2 146 2 315 1
77 0 154 -1 170 -1 17 0 149 -4 295 -9 146 -6 288 -6 315 -2 28 5 147 4 265
-1 118 -5 258 -10 311 -13 53 -2 105 -9 117 -15 32 -17 37 -13 15 12 -12 12
-28 38 -36 57 -8 19 -59 95 -113 169 -55 73 -122 167 -150 208 -28 40 -68 95
-88 121 -74 95 -153 199 -205 272 -281 387 -334 451 -412 491 -85 43 -306 85
-597 114 -182 18 -244 15 -82 -4 186 -21 465 -71 521 -91 l54 -20 -55 4 c-30
2 -107 11 -170 19 -104 14 -292 28 -580 42 -58 3 -130 8 -160 10 -208 19 -552
36 -820 41 -352 7 -1324 6 -1355 -2 -11 -2 -249 -9 -530 -14 -280 -6 -553 -14
-605 -19 -156 -15 -273 -17 -277 -4 -2 6 6 14 19 16 13 2 -2 2 -32 0 -67 -5
-201 -28 -255 -44 -77 -22 -77 -22 -375 -469 -166 -249 -187 -282 -221 -345
-12 -22 -47 -74 -80 -116 -32 -42 -61 -87 -64 -101 -5 -21 -1 -27 27 -40 18
-9 47 -19 65 -23 31 -6 61 -30 50 -41 -11 -11 -159 37 -191 61 -27 20 -44 25
-93 25 -144 0 -425 -42 -522 -78 -74 -27 -98 -65 -149 -238 -63 -211 -94 -415
-95 -619 -1 -145 15 -211 80 -335 57 -108 183 -297 270 -404 26 -32 55 -68 65
-80 13 -17 18 -66 28 -281 6 -143 14 -291 19 -328 4 -38 4 -70 -1 -73 -4 -3
-8 4 -8 14 0 27 -72 52 -133 45 -30 -4 -56 0 -78 11 -38 19 -56 20 -61 5 -3
-8 -27 -9 -83 -3 -77 8 -78 9 -35 15 l45 6 -42 1 c-23 1 -43 7 -45 13 -3 8
-59 13 -168 16 -147 4 -168 7 -194 26 -20 14 -31 17 -34 9 -5 -15 -82 -16 -82
-2 0 6 5 10 11 10 8 0 8 5 -1 15 -8 10 -31 15 -70 15 -31 0 -85 3 -119 6 -50
6 -61 10 -61 25 0 15 -8 19 -39 19 -22 0 -41 -5 -44 -12 -3 -10 -9 -10 -26 0
-11 6 -34 12 -50 12 -32 0 -81 40 -81 65 0 10 -10 15 -29 15 -17 0 -33 5 -36
10 -3 6 -26 10 -51 10 -24 0 -44 5 -44 10 0 6 -18 10 -40 10 -36 0 -40 3 -40
25 0 22 -4 25 -37 25 -52 0 -123 30 -123 53 0 12 -8 17 -30 17 -19 0 -34 7
-42 20 -11 17 -24 20 -94 20 -68 0 -84 3 -99 20 -12 13 -31 20 -54 20 -25 0
-40 6 -49 20 -9 16 -23 20 -62 20 -43 0 -50 3 -50 20 0 11 5 20 11 20 5 0 7 5
3 12 -6 9 -9 9 -12 0 -4 -14 -82 -16 -82 -2 0 6 -18 10 -40 10 -22 0 -40 5
-40 10 0 6 -36 10 -88 10 -65 0 -94 4 -111 16 -18 13 -20 18 -10 25 11 7 11
12 -4 26 -15 16 -19 16 -28 3 -8 -13 -14 -10 -39 18 -35 38 -40 39 -40 10 l0
-21 -24 22 c-17 16 -37 23 -75 24 -28 1 -51 5 -51 10 0 4 -20 7 -45 7 -43 0
-45 1 -45 30 0 30 0 30 -56 30 -46 0 -59 4 -75 22 -16 20 -20 21 -29 8 -9 -13
-15 -10 -40 18 -25 27 -37 32 -75 32 -25 0 -45 -4 -45 -10 0 -5 -18 -10 -41
-10 -53 0 -48 22 7 32 l39 6 -42 -2 c-31 -1 -43 2 -43 12 0 11 -20 13 -91 11
-84 -3 -93 -1 -109 19 -10 12 -23 22 -29 22 -6 0 -11 6 -11 14 0 10 -13 16
-37 18 -31 2 -39 7 -41 26 -3 18 -10 22 -43 22 -32 0 -39 -3 -39 -20 0 -17 -7
-20 -40 -20 -33 0 -40 3 -40 20 0 14 -7 20 -22 20 -12 0 -30 7 -39 16 -15 13
-50 18 -179 22 -147 4 -160 6 -160 23 0 16 8 19 50 19 28 0 50 5 50 10 0 6
-22 10 -50 10 -27 0 -50 5 -50 10 0 15 -77 12 -83 -2 -4 -9 -16 -2 -36 20 -36
37 -41 39 -41 12 0 -17 -7 -20 -40 -20 -33 0 -40 3 -40 20 0 17 -7 20 -40 20
-22 0 -40 5 -40 10 0 6 -33 10 -80 10 -47 0 -80 4 -80 10 0 6 -18 10 -40 10
-33 0 -40 3 -40 20 0 27 -7 25 -37 -10 -33 -40 -43 -38 -43 10 l0 40 -127 0
c-116 0 -129 2 -150 22 -13 12 -23 25 -23 30 0 4 32 8 70 8 40 0 70 4 70 10 0
6 -33 10 -80 10 l-80 0 0 30 c0 21 -5 30 -16 30 -9 0 -25 10 -36 23 -13 15
-21 18 -24 10 -4 -9 -31 -13 -84 -13 -53 0 -80 -4 -84 -12 -3 -7 -2 6 1 30 6
45 -4 55 -25 22 -16 -26 -48 -26 -64 0 -16 25 -44 26 -52 3 -10 -24 -25 2 -18
30 5 18 2 19 -46 15 -45 -4 -54 -2 -74 19 -18 19 -20 26 -9 32 28 18 0 29 -54
24 -38 -4 -55 -2 -55 6 0 6 -17 11 -39 11 -33 0 -40 4 -43 23 -3 21 -6 22
-118 22 l-115 0 -3 38 c-3 29 0 37 14 37 13 0 14 3 4 15 -10 12 -38 15 -136
15 -76 0 -124 4 -124 10 0 6 -18 10 -40 10 l-40 0 0 55 0 55 -51 0 c-43 0 -54
4 -71 25 -16 21 -28 25 -68 25 -45 0 -49 -2 -53 -27 -3 -17 -4 -12 -3 12 l1
40 50 5 c50 5 50 5 53 43 2 21 -1 37 -7 37 -6 0 -11 -9 -11 -20 0 -17 -7 -20
-40 -20 -33 0 -40 3 -40 20 0 18 -7 20 -60 20 l-60 0 0 40 0 40 -60 0 c-49 0
-60 -3 -60 -16 0 -14 -2 -15 -17 -3 -15 13 -15 14 0 17 12 3 17 14 17 43 l0
39 -80 0 -80 0 0 40 0 40 -40 0 c-30 0 -40 -4 -40 -16 0 -14 -3 -14 -15 -4 -9
8 -15 30 -15 56 0 40 -2 44 -25 44 -24 0 -25 3 -25 55 l0 55 -40 0 -40 0 0
105 0 105 -40 0 -40 0 0 -40 c0 -29 -4 -40 -15 -40 -13 0 -15 29 -15 200 0
127 -4 200 -10 200 -5 0 -10 18 -10 40 0 22 5 40 10 40 6 0 10 18 10 40 0 38
2 40 30 40 28 0 30 2 30 40 0 36 3 40 25 40 23 0 25 4 25 40 0 29 4 40 15 40
11 0 15 11 15 40 0 29 -4 40 -15 40 -9 0 -15 9 -15 25 0 23 4 25 40 25 29 0
40 4 40 15 0 8 7 15 15 15 11 0 15 12 15 47 0 29 6 53 17 65 22 25 33 23 33
-7 0 -16 6 -25 15 -25 11 0 15 11 15 40 0 22 5 40 10 40 6 0 10 18 10 40 l0
40 -42 0 c-40 0 -41 1 -24 19 19 21 54 18 63 -5 3 -8 11 -14 19 -14 8 0 14 -7
14 -15 0 -11 11 -15 40 -15 29 0 40 4 40 15 0 8 -7 15 -15 15 -11 0 -15 11
-15 40 0 29 4 40 15 40 9 0 15 -9 15 -25 0 -14 4 -25 9 -25 5 0 18 11 29 25
22 27 42 33 42 11 0 -7 7 -20 16 -27 14 -11 18 -10 30 6 18 24 18 35 -1 35
-19 0 -19 9 2 32 11 13 30 18 65 18 36 0 48 4 48 15 0 11 -11 15 -40 15 -22 0
-40 4 -40 9 0 12 59 71 71 71 5 0 9 -11 9 -25 0 -30 11 -32 36 -4 16 17 16 22
4 30 -13 8 -10 14 12 34 18 15 27 32 25 47 -2 20 3 23 41 26 23 2 42 7 42 11
0 5 11 12 24 15 13 3 31 9 40 12 13 5 16 -1 16 -30 0 -35 1 -36 40 -36 l40 0
0 40 0 40 40 0 c33 0 40 3 40 20 0 17 7 20 40 20 33 0 40 -3 40 -20 0 -27 7
-25 37 10 21 26 32 30 74 30 27 0 49 5 49 10 0 6 18 10 40 10 33 0 40 3 40 20
0 17 7 20 40 20 33 0 40 3 40 20 0 17 7 20 40 20 33 0 40 3 40 20 0 17 7 20
40 20 41 0 51 -7 100 -69 14 -17 30 -31 37 -31 18 0 16 49 -2 56 -21 8 -19 27
5 49 11 10 17 22 14 27 -8 13 20 5 31 -10 6 -7 18 -10 28 -6 21 8 22 24 2 24
-8 0 -15 7 -15 16 0 9 -8 22 -17 29 -15 11 -15 13 6 25 13 6 40 10 61 8 33 -3
36 -1 32 17 -3 11 -13 25 -21 32 -14 10 -12 13 11 24 25 11 30 10 49 -15 26
-33 62 -32 67 2 2 15 -2 22 -12 22 -9 0 -16 5 -16 10 0 6 24 10 54 10 56 0 86
16 86 46 0 8 5 14 10 14 6 0 10 -13 10 -30 0 -16 2 -30 4 -30 13 0 76 32 76
39 0 4 28 11 63 15 34 3 64 11 65 16 8 21 32 9 32 -16 0 -15 4 -23 11 -19 6 4
8 13 5 21 -12 32 14 20 55 -26 24 -27 50 -50 56 -50 7 0 32 -18 55 -40 40 -38
58 -48 58 -34 0 3 -29 36 -65 72 -36 36 -65 69 -65 74 0 4 -6 8 -12 8 -7 0
-21 19 -30 42 -17 40 -17 40 1 24 16 -15 19 -15 31 -1 15 18 57 20 63 3 4 -10
7 -10 18 0 11 10 10 12 -4 12 -9 0 -17 7 -17 15 0 21 17 19 31 -4 7 -11 19
-16 31 -13 13 3 18 -1 18 -17 0 -18 6 -21 44 -21 24 0 60 -7 80 -15 44 -19 46
-12 6 22 -16 13 -30 31 -30 39 0 8 -3 14 -7 14 -13 0 -35 54 -23 58 5 2 10 12
10 23 0 26 4 25 72 -21 33 -22 67 -40 74 -40 20 0 17 38 -3 43 -10 3 6 3 35 1
32 -2 67 -13 90 -27 42 -26 293 -127 317 -127 32 0 13 19 -25 25 -22 4 -40 10
-40 13 0 4 -19 13 -41 20 -23 7 -62 27 -88 45 -25 18 -52 35 -61 39 -8 4 3 6
25 4 22 -2 32 -1 23 1 -13 3 -18 15 -18 44 0 32 3 39 20 39 11 0 20 -4 20 -10
0 -15 70 -12 86 4 19 19 18 56 -1 56 -8 0 -15 7 -15 15 0 8 9 15 20 15 11 0
20 -4 20 -10 0 -17 47 -11 54 6 4 9 4 19 1 22 -3 3 -5 0 -5 -6 0 -7 -11 -12
-25 -12 -14 0 -25 6 -25 13 0 7 -9 20 -20 30 -27 22 -25 35 5 49 l25 11 -23
11 c-20 11 -22 18 -19 68 4 52 2 57 -20 60 -21 4 -21 5 -4 13 11 5 21 3 26 -4
5 -9 20 0 48 30 35 35 48 42 84 44 24 1 59 11 78 23 19 12 40 22 45 22 6 0 18
9 27 19 15 18 15 20 -15 36 -25 13 -27 15 -7 10 14 -4 38 -9 54 -12 15 -3 23
-8 18 -12 -6 -3 12 -6 39 -5 60 1 87 19 43 30 -54 12 -169 47 -179 54 -5 4
-36 17 -68 30 -32 12 -56 25 -53 27 7 7 90 -19 109 -35 15 -13 17 -13 17 1 0
10 -7 17 -15 17 -8 0 -15 5 -15 10 0 6 -13 10 -30 10 -25 0 -30 4 -29 23 1 16
2 18 6 5 2 -10 13 -18 24 -18 16 0 19 7 19 40 0 33 3 40 20 40 13 0 20 -7 20
-20 0 -17 7 -20 40 -20 33 0 40 3 40 20 0 14 7 20 21 20 18 0 20 6 19 43 -4
99 -1 117 20 117 17 0 20 -7 20 -38 0 -38 1 -38 38 -37 36 1 37 2 40 39 2 24
-2 42 -10 47 -15 9 -16 9 46 42 27 15 57 27 67 27 11 0 28 5 38 12 15 9 25 9
46 0 40 -18 55 -15 55 13 0 23 4 25 40 25 29 0 40 -4 40 -15 0 -16 13 -24 47
-29 29 -5 36 5 14 21 -12 8 -21 23 -21 34 0 16 7 19 54 19 48 0 54 3 60 23 5
20 10 22 46 19 25 -3 40 0 40 7 0 6 17 11 40 11 38 0 40 -2 40 -30 0 -16 5
-30 10 -30 6 0 10 18 10 40 0 22 -4 40 -10 40 -5 0 -10 9 -10 20 0 17 7 20 40
20 33 0 40 3 40 20 0 19 7 20 120 20 l120 0 0 43 0 44 75 -2 75 -1 1 75 c1 70
2 73 11 39 9 -35 13 -38 44 -38 19 0 34 -4 34 -10 0 -6 33 -10 80 -10 l80 0 0
50 0 50 -45 0 c-25 0 -45 4 -45 9 0 28 12 36 50 33 31 -3 40 -8 40 -23 0 -17
8 -19 80 -19 l80 0 0 40 0 40 40 0 c22 0 40 -4 40 -10 0 -5 18 -10 40 -10 22
0 40 5 40 10 0 6 33 10 80 10 l80 0 0 30 c0 28 2 30 40 30 38 0 40 2 40 30 l0
30 80 0 c73 0 80 2 80 20 0 19 7 20 120 20 l120 0 0 40 0 40 48 1 c26 1 60 2
75 3 17 2 31 -3 34 -10 6 -15 73 -20 73 -6 0 5 -15 8 -32 8 -32 -1 -33 1 -36
42 l-3 42 80 0 c74 0 81 2 81 20 0 18 7 20 79 20 75 0 80 1 83 23 3 21 8 22
78 22 l75 0 3 38 3 37 -40 0 c-34 0 -41 3 -41 19 0 17 9 20 83 23 123 5 157 0
157 -23 0 -18 9 -19 120 -19 l120 0 0 40 c0 32 4 40 18 40 9 0 23 9 30 20 9
16 23 20 62 20 43 0 50 -3 50 -20 0 -17 7 -20 40 -20 33 0 40 3 40 20 0 17 7
20 40 20 22 0 40 5 40 10 0 6 33 10 80 10 47 0 80 4 80 10 0 6 18 10 40 10 22
0 40 -4 40 -10 0 -6 33 -10 80 -10 l80 0 0 50 0 50 40 0 40 0 0 -40 c0 -22 5
-40 10 -40 6 0 10 18 10 40 0 38 2 40 30 40 28 0 30 2 30 40 l0 40 80 0 c73 0
80 2 80 20 0 17 7 20 40 20 35 0 40 3 40 23 l0 24 158 -4 c86 -2 159 -8 160
-14 2 -5 21 -9 43 -9 37 0 39 2 39 30 0 28 2 30 40 30 33 0 40 3 40 20 0 19 7
20 160 20 100 0 160 -4 160 -10 0 -5 18 -10 40 -10 l40 0 0 50 0 50 80 0 c47
0 80 -4 80 -10 0 -5 18 -10 40 -10 22 0 40 5 40 10 0 6 18 10 40 10 l40 0 0
40 0 40 80 0 c47 0 80 -4 80 -10 0 -5 18 -10 40 -10 22 0 40 5 40 10 0 6 33
10 80 10 l80 0 0 40 0 40 40 0 c22 0 40 -4 40 -10 0 -13 77 -13 82 0 2 5 68
11 155 12 l153 3 1 80 c0 58 3 74 9 58 7 -18 17 -23 45 -23 28 0 35 -4 35 -20
0 -17 -7 -20 -41 -20 -33 0 -40 -3 -37 -17 2 -13 14 -19 41 -21 21 -2 37 1 37
7 0 6 18 11 40 11 22 0 40 5 40 10 0 15 137 13 144 -2 5 -10 7 -10 12 0 7 14
84 17 84 2 0 -5 18 -10 40 -10 38 0 40 -2 40 -30 0 -16 5 -30 10 -30 6 0 10
18 10 40 0 38 2 40 30 40 17 0 30 -4 30 -10 0 -5 18 -10 40 -10 22 0 40 5 40
10 0 6 8 10 18 10 9 0 23 9 30 20 7 11 17 20 22 20 6 0 10 -9 10 -20 0 -17 7
-20 40 -20 38 0 40 2 40 30 0 28 2 30 40 30 22 0 40 5 40 10 0 6 33 10 80 10
47 0 80 -4 80 -10 0 -5 18 -10 40 -10 22 0 40 5 40 10 0 6 -18 10 -40 10 -33
0 -40 3 -40 20 0 17 7 20 40 20 l40 0 0 40 0 40 40 0 40 0 0 -70 0 -70 40 0
c38 0 40 2 40 30 0 28 2 30 40 30 33 0 40 -3 40 -20 0 -19 7 -20 160 -20 153
0 160 1 160 20 0 17 7 20 40 20 33 0 40 -3 40 -20 0 -17 7 -20 40 -20 l40 0 0
40 0 40 120 0 c113 0 120 1 120 20 0 18 7 20 80 20 73 0 80 -2 80 -20 0 -17 7
-20 40 -20 33 0 40 -3 40 -20 0 -17 7 -20 40 -20 33 0 40 3 40 20 0 17 7 20
40 20 33 0 40 -3 40 -20 0 -17 7 -20 40 -20 33 0 40 3 40 20 0 12 7 20 18 20
9 0 23 9 30 20 9 16 23 20 62 20 43 0 50 -3 50 -20 0 -18 7 -20 80 -20 47 0
80 -4 80 -10 0 -5 18 -10 40 -10 22 0 40 5 40 10 0 6 18 10 40 10 33 0 40 3
40 20 0 17 7 20 40 20 33 0 40 3 40 20 0 17 7 20 40 20 l40 0 0 -40z m-292
-12 c18 -18 15 -28 -8 -28 -13 0 -20 7 -20 20 0 23 10 26 28 8z m532 -8 c0
-13 -7 -20 -20 -20 -23 0 -26 10 -8 28 18 18 28 15 28 -8z m1360 -60 l0 -40
-40 0 -40 0 0 40 0 40 40 0 40 0 0 -40z m-4240 -20 c0 -18 7 -20 60 -20 62 0
75 -11 40 -32 -11 -7 -20 -21 -20 -30 0 -14 -8 -18 -40 -18 l-40 0 0 40 0 40
-40 0 -40 0 0 -40 0 -40 -40 0 -40 0 0 60 0 60 80 0 c73 0 80 -2 80 -20z m320
0 c0 -17 -7 -20 -40 -20 -33 0 -40 3 -40 20 0 17 7 20 40 20 33 0 40 -3 40
-20z m4880 0 c0 -17 -7 -20 -40 -20 -33 0 -40 3 -40 20 0 17 7 20 40 20 33 0
40 -3 40 -20z m590 -29 c0 -5 -7 -14 -15 -21 -13 -10 -15 -9 -15 9 0 12 6 21
15 21 8 0 15 -4 15 -9z m-350 -51 c0 -13 -7 -20 -20 -20 -23 0 -26 10 -8 28
18 18 28 15 28 -8z m430 -11 c0 -5 -7 -9 -15 -9 -9 0 -15 9 -15 21 0 18 2 19
15 9 8 -7 15 -16 15 -21z m-7068 -116 c-3 -43 -7 -53 -22 -53 -14 0 -19 10
-21 44 -3 37 -1 43 14 41 14 -3 17 4 18 38 1 39 2 40 8 12 4 -16 5 -54 3 -82z
m6758 67 c0 -33 -3 -40 -20 -40 -17 0 -20 7 -20 40 0 33 3 40 20 40 17 0 20
-7 20 -40z m600 -100 c0 -17 -7 -20 -40 -20 -33 0 -40 3 -40 20 0 17 7 20 40
20 33 0 40 -3 40 -20z m-8535 -80 c18 -19 17 -20 -3 -20 -15 0 -22 6 -22 20 0
11 2 20 3 20 2 0 12 -9 22 -20z m9095 -80 c0 -17 -7 -20 -40 -20 -33 0 -40 3
-40 20 0 17 7 20 40 20 33 0 40 -3 40 -20z m640 -160 c0 -17 -7 -20 -40 -20
-33 0 -40 3 -40 20 0 17 7 20 40 20 33 0 40 -3 40 -20z m-10470 -17 c0 -16 -3
-58 -7 -95 l-6 -68 -39 0 -39 0 3 43 c3 40 4 42 36 41 l32 -1 0 54 c0 29 5 53
10 53 6 0 10 -12 10 -27z m10731 -81 c-17 -3 -21 -10 -21 -43 0 -39 0 -39 -40
-39 l-40 0 0 40 0 40 40 0 c34 0 40 3 40 22 0 21 0 21 21 2 l21 -19 -21 -3z
m-11544 -74 c-3 -8 -6 -5 -6 6 -1 11 2 17 5 13 3 -3 4 -12 1 -19z m203 -16 c0
-10 -22 -32 -32 -32 -4 0 -8 9 -8 20 0 13 7 20 20 20 11 0 20 -4 20 -8z
m12145 -52 c18 -19 17 -20 -3 -20 -15 0 -22 6 -22 20 0 11 2 20 3 20 2 0 12
-9 22 -20z m-12348 -13 c-5 -13 -69 -18 -82 -6 -3 3 13 5 35 4 30 -1 40 2 40
13 0 9 3 13 6 9 4 -3 4 -12 1 -20z m13200 -349 c-3 -8 -6 -5 -6 6 -1 11 2 17
5 13 3 -3 4 -12 1 -19z m-14557 -98 c0 -33 -3 -40 -20 -40 -17 0 -20 7 -20 40
0 33 3 40 20 40 17 0 20 -7 20 -40z m-160 -100 c0 -17 -7 -20 -40 -20 -33 0
-40 3 -40 20 0 17 7 20 40 20 33 0 40 -3 40 -20z m15680 -60 c0 -33 3 -40 20
-40 23 0 26 -10 8 -28 -18 -18 -26 -15 -30 11 -2 18 -9 22 -38 22 -33 0 -35 2
-38 38 l-3 37 40 0 41 0 0 -40z m-16080 -100 c0 -17 -7 -20 -40 -20 -33 0 -40
3 -40 20 0 17 7 20 40 20 33 0 40 -3 40 -20z m16640 -80 c0 -17 -7 -20 -40
-20 -33 0 -40 3 -40 20 0 17 7 20 40 20 33 0 40 -3 40 -20z m585 -160 c18 -19
17 -20 -3 -20 -15 0 -22 6 -22 20 0 11 2 20 3 20 2 0 12 -9 22 -20z m375 -80
c0 -17 -7 -20 -40 -20 -33 0 -40 3 -40 20 0 17 7 20 40 20 33 0 40 -3 40 -20z
m-18920 0 c0 -5 -5 -10 -11 -10 -5 0 -7 5 -4 10 3 6 8 10 11 10 2 0 4 -4 4
-10z m19240 -5 c0 -11 -11 -15 -40 -15 -29 0 -40 4 -40 15 0 11 11 15 40 15
29 0 40 -4 40 -15z m-19363 -167 c-3 -8 -6 -5 -6 6 -1 11 2 17 5 13 3 -3 4
-12 1 -19z m-42 2 c3 -5 1 -10 -4 -10 -6 0 -11 5 -11 10 0 6 2 10 4 10 3 0 8
-4 11 -10z m20365 -70 c0 -18 -7 -20 -80 -20 -73 0 -80 2 -80 20 0 18 7 20 80
20 73 0 80 -2 80 -20z m1040 -240 c0 -17 -7 -20 -40 -20 -33 0 -40 3 -40 20 0
17 7 20 40 20 33 0 40 -3 40 -20z m-21594 -5 c9 -8 11 -15 6 -15 -5 0 -15 7
-22 15 -7 8 -9 15 -6 15 4 0 14 -7 22 -15z m22019 -75 c18 -19 17 -20 -3 -20
-15 0 -22 6 -22 20 0 11 2 20 3 20 2 0 12 -9 22 -20z m-21838 -16 c-3 -3 -12
-4 -19 -1 -8 3 -5 6 6 6 11 1 17 -2 13 -5z m21969 -6 c2 -3 -13 -5 -35 -4 -22
0 -37 4 -35 7 4 7 62 4 70 -3z m884 -298 c0 -17 -7 -20 -40 -20 -33 0 -40 3
-40 20 0 17 7 20 40 20 33 0 40 -3 40 -20z m-23173 -16 c-3 -3 -12 -4 -19 -1
-8 3 -5 6 6 6 11 1 17 -2 13 -5z m21 -136 c19 -19 14 -28 -18 -28 -23 0 -30 4
-30 20 0 23 29 27 48 8z m-131 -50 c-3 -8 -6 -5 -6 6 -1 11 2 17 5 13 3 -3 4
-12 1 -19z m-980 -164 c-3 -3 -12 -4 -19 -1 -8 3 -5 6 6 6 11 1 17 -2 13 -5z
m25546 -54 c36 0 37 -1 37 -40 0 -33 -3 -40 -20 -40 -11 0 -20 7 -20 15 0 18
-47 65 -65 65 -8 0 -15 -7 -15 -17 0 -9 -2 -14 -5 -11 -3 3 -2 19 1 37 l7 32
21 -21 c14 -13 36 -20 59 -20z m-25493 15 c0 -8 -7 -15 -15 -15 -8 0 -15 7
-15 15 0 8 7 15 15 15 8 0 15 -7 15 -15z m150 0 c11 -13 8 -15 -14 -15 -23 0
-25 2 -14 15 16 18 13 18 28 0z m-340 -75 c0 -15 -7 -20 -25 -20 -29 0 -30 3
-9 24 21 22 34 20 34 -4z m-50 -80 c0 -5 -11 -10 -25 -10 -14 0 -25 5 -25 10
0 6 11 10 25 10 14 0 25 -4 25 -10z m26205 -100 c-5 -8 -72 -7 -79 1 -3 2 15
5 39 5 24 0 42 -3 40 -6z m-27297 -252 c-6 -18 -28 -21 -28 -4 0 9 7 16 16 16
9 0 14 -5 12 -12z m28144 -429 c-3 -30 -8 -39 -23 -39 -15 0 -19 7 -19 38 0
44 5 52 28 45 14 -3 17 -13 14 -44z m68 -30 c0 -5 -7 -9 -15 -9 -9 0 -15 9
-15 21 0 18 2 19 15 9 8 -7 15 -16 15 -21z m-28750 -154 c0 -11 -11 -15 -40
-15 -29 0 -40 4 -40 15 0 11 11 15 40 15 29 0 40 -4 40 -15z m-80 -135 l0 -40
-40 0 -40 0 0 -40 c0 -29 -4 -40 -15 -40 -12 0 -15 16 -15 80 l0 80 55 0 55 0
0 -40z m29064 -118 c3 -5 -1 -9 -9 -9 -8 0 -12 4 -9 9 3 4 7 8 9 8 2 0 6 -4 9
-8z m-17776 -134 l3 -68 -93 -1 c-109 -1 -194 -11 -209 -26 -6 -6 -13 -30 -16
-53 l-6 -43 352 6 c194 3 355 8 359 11 3 4 1 18 -4 33 -16 46 -60 63 -183 72
-61 4 -114 11 -117 14 -4 4 -9 30 -12 58 -3 37 -1 54 9 60 21 13 226 11 464
-6 116 -7 284 -19 375 -25 91 -6 176 -13 188 -16 18 -4 32 -23 57 -77 78 -170
73 -306 -14 -451 -27 -44 -51 -67 -95 -95 l-59 -36 -461 2 c-254 1 -596 6
-761 12 -811 29 -961 34 -1370 40 -432 6 -440 6 -438 26 4 46 34 337 44 425 6
52 15 109 20 126 l9 30 138 13 c75 7 250 15 387 18 138 3 363 8 500 13 138 4
403 7 590 6 l340 -1 3 -67z m-2225 43 c21 -21 -67 -621 -119 -808 -4 -13 -11
-23 -18 -24 -32 -2 -442 3 -445 6 -4 4 62 229 183 630 25 83 46 153 46 157 0
4 5 19 10 34 l11 27 161 -6 c88 -3 165 -10 171 -16z m4112 -6 c69 -10 168 -47
222 -81 56 -36 236 -210 293 -283 19 -25 58 -72 85 -105 75 -89 134 -169 205
-276 35 -52 83 -121 107 -152 46 -60 54 -85 26 -73 -106 41 -346 66 -612 64
-202 -1 -191 -6 -228 106 -11 33 -42 128 -70 210 -78 231 -154 466 -163 504
-13 54 -2 89 29 94 26 4 34 3 106 -8z m-148 -170 c6 -16 12 -39 12 -50 1 -11
7 -31 14 -45 24 -48 197 -593 197 -622 0 -24 -12 -23 -37 5 -20 23 -24 32 -74
212 -17 61 -52 169 -79 240 -52 139 -58 162 -69 241 -6 43 -5 51 8 50 9 -1 21
-14 28 -31z m16167 -55 c2 -3 -14 -6 -35 -6 -22 -1 -35 2 -29 6 12 7 56 7 64
0z m-20704 -127 c-37 -95 -58 -160 -90 -268 -10 -35 -45 -141 -69 -205 -14
-39 -16 -42 -19 -19 -2 14 11 66 28 115 18 49 42 125 56 170 13 44 37 114 54
155 16 41 30 77 30 81 0 3 10 28 21 55 39 89 31 26 -11 -84z m20947 55 c-3 -8
-6 -5 -6 6 -1 11 2 17 5 13 3 -3 4 -12 1 -19z m-29597 -48 c0 -29 -4 -40 -15
-40 -11 0 -15 11 -15 40 0 29 4 40 15 40 11 0 15 -11 15 -40z m9417 -347 c-3
-10 -5 -4 -5 12 0 17 2 24 5 18 2 -7 2 -21 0 -30z m20503 -183 c0 -5 -2 -10
-4 -10 -3 0 -8 5 -11 10 -3 6 -1 10 4 10 6 0 11 -4 11 -10z m80 0 c0 -5 -2
-10 -4 -10 -3 0 -8 5 -11 10 -3 6 -1 10 4 10 6 0 11 -4 11 -10z m-21547 -71
c-4 -4 -15 -4 -23 2 -13 8 -12 12 5 25 18 14 20 13 23 -2 2 -9 0 -20 -5 -25z
m21413 1 c10 0 14 -12 14 -40 0 -33 -3 -40 -20 -40 -18 0 -20 6 -19 53 0 28 3
46 6 40 2 -7 11 -13 19 -13z m-15726 -30 c14 -5 -29 -6 -95 -3 -66 3 -122 7
-124 9 -9 8 195 2 219 -6z m15858 -192 c-2 -18 -9 -23 -30 -22 -46 2 -48 3
-48 24 0 17 7 20 41 20 36 0 40 -2 37 -22z m-17093 -98 c149 -50 284 -96 302
-101 17 -5 42 -18 54 -28 l23 -18 -22 -12 c-51 -27 -230 -37 -942 -51 -261 -5
-599 -13 -750 -16 -259 -7 -280 -6 -360 14 -184 46 -570 178 -594 202 -13 14
18 9 121 -17 55 -14 66 -14 100 -1 101 40 276 54 818 68 209 6 424 14 479 20
54 5 106 10 115 10 14 0 14 2 1 11 -11 8 -1 9 40 6 30 -2 64 -1 75 3 11 4 76
7 145 5 l125 -2 270 -93z m-2513 -55 c252 -48 288 -57 386 -88 137 -45 332
-161 308 -184 -5 -4 -11 -2 -13 5 -4 10 -8 10 -19 1 -7 -6 -21 -8 -30 -5 -9 3
-32 2 -53 -3 -62 -17 -202 -42 -291 -52 -47 -5 -119 -14 -160 -18 -92 -11
-354 -4 -358 9 -2 6 -18 10 -35 10 -33 1 -67 20 -67 37 0 17 -60 21 -76 5 -9
-9 -24 -12 -39 -8 -30 8 -34 43 -7 68 9 9 23 23 30 32 15 18 16 83 1 88 -14 5
0 38 17 38 8 0 14 9 14 20 0 13 10 24 25 30 14 5 25 16 25 25 0 25 183 20 342
-10z m-2412 -79 c0 -11 -19 -15 -25 -6 -3 5 1 10 9 10 9 0 16 -2 16 -4z
m22138 -38 c-8 -22 -37 -34 -55 -22 -33 21 -26 34 17 34 28 0 40 -4 38 -12z
m42 -47 c0 -10 -9 -21 -20 -24 -15 -4 -20 -14 -20 -41 0 -29 -4 -36 -20 -36
-17 0 -20 7 -20 40 0 27 4 40 13 40 8 0 22 9 32 20 23 25 35 25 35 1z m-28400
-121 c0 -11 -2 -20 -3 -20 -2 0 -12 9 -22 20 -18 19 -17 20 3 20 15 0 22 -6
22 -20z m28480 -40 c0 -17 -7 -20 -40 -20 -33 0 -40 3 -40 20 0 17 7 20 40 20
33 0 40 -3 40 -20z m-28480 -36 c0 -14 -3 -14 -15 -4 -8 7 -15 14 -15 16 0 2
7 4 15 4 8 0 15 -7 15 -16z m28400 -154 c0 -5 -7 -7 -15 -4 -8 4 -15 8 -15 10
0 2 7 4 15 4 8 0 15 -4 15 -10z m-52 -22 c19 -19 15 -48 -8 -48 -16 0 -20 7
-20 30 0 32 9 37 28 18z m94 -88 c3 -35 1 -40 -17 -41 -11 0 -40 -2 -64 -4
-24 -1 -38 1 -31 5 6 4 25 6 41 5 27 -2 29 0 29 36 0 32 4 39 19 39 15 0 20
-9 23 -40z m-13656 -63 c67 -35 118 -127 130 -232 7 -55 -16 -126 -54 -169
-47 -53 -168 -70 -322 -46 -87 14 -111 34 -130 103 -8 30 -18 59 -22 63 -5 4
-8 41 -8 81 0 65 3 79 27 111 68 93 111 111 248 108 71 -1 109 -7 131 -19z
m13494 -17 c0 -33 -3 -40 -20 -40 -17 0 -20 7 -20 40 0 33 3 40 20 40 17 0 20
-7 20 -40z m-14083 0 c27 -18 63 -80 63 -111 0 -50 -42 -244 -61 -281 l-19
-38 -128 0 c-154 0 -281 20 -296 47 -25 43 -37 94 -43 183 -5 85 -3 100 16
138 12 23 22 42 24 42 1 0 27 9 57 20 47 17 77 19 210 17 111 -2 161 -7 177
-17z m-5722 -40 c168 -30 187 -38 185 -78 -4 -54 0 -83 10 -77 6 3 10 -4 11
-17 0 -22 1 -22 9 -3 7 17 9 14 9 -13 1 -18 -3 -31 -7 -28 -4 2 -14 1 -22 -4
-10 -6 -15 -36 -18 -107 -5 -135 -11 -149 -77 -164 -108 -24 -380 4 -417 43
-7 7 -21 41 -30 76 -15 57 -15 71 -2 140 8 42 17 94 20 114 2 21 15 50 27 64
46 53 175 76 302 54z m770 -59 c38 -16 57 -33 80 -69 27 -42 30 -55 29 -127
-1 -130 -50 -191 -171 -215 -52 -10 -219 2 -291 21 -66 18 -72 33 -72 184 0
106 4 138 19 171 19 42 19 42 93 52 115 16 254 9 313 -17z m18925 -66 c0 -31
-3 -35 -25 -35 -14 0 -25 3 -25 6 0 6 42 62 48 63 1 1 2 -15 2 -34z m0 -102
c0 -7 -11 -13 -25 -13 -22 0 -25 -4 -25 -40 0 -33 -3 -40 -20 -40 -18 0 -20 7
-20 59 l0 60 38 3 c37 3 52 -5 52 -29z m150 7 c0 -14 -7 -20 -22 -20 -20 0
-21 1 -3 20 10 11 20 20 22 20 1 0 3 -9 3 -20z m-84 -29 c1 -6 0 -7 -3 -1 -2
5 -9 8 -13 5 -5 -3 -11 -1 -14 4 -4 5 2 8 11 7 9 -2 18 -8 19 -15z m-13226
-292 c75 -11 110 -25 110 -44 0 -3 9 -16 21 -28 27 -29 41 -55 32 -60 -13 -8
-1018 12 -1138 22 -60 5 -113 7 -117 5 -4 -3 -5 2 -2 10 3 8 17 18 32 22 37
10 525 11 637 1 171 -15 215 -16 215 -8 0 8 -15 12 -117 27 -24 4 -43 10 -43
14 0 5 -12 13 -27 19 -25 10 -24 11 15 6 25 -3 52 0 65 7 24 14 140 26 197 22
19 -2 73 -9 120 -15z m12940 -34 c-7 -8 -16 -15 -21 -15 -5 0 -9 7 -9 15 0 9
9 15 21 15 18 0 19 -2 9 -15z m-19055 -65 c121 -6 222 -13 224 -16 14 -14 -35
-18 -257 -23 -301 -7 -447 0 -471 23 -39 39 23 41 504 16z m18653 -163 c2 -64
0 -77 -13 -77 -12 0 -15 15 -15 81 0 60 3 80 13 77 8 -3 13 -31 15 -81z
m-18330 37 c139 -3 251 -8 249 -10 -2 -2 -215 -9 -473 -14 -258 -5 -535 -15
-615 -21 -163 -14 -214 -7 -214 26 0 17 9 21 55 25 70 6 669 3 998 -6z m-5138
-44 c0 -5 -6 -10 -14 -10 -8 0 -18 5 -21 10 -3 6 3 10 14 10 12 0 21 -4 21
-10z m23391 -48 c7 -18 5 -22 -11 -22 -15 0 -20 7 -20 26 0 30 19 28 31 -4z
m79 -106 c0 -2 -7 -9 -15 -16 -12 -10 -15 -10 -15 4 0 9 7 16 15 16 8 0 15 -2
15 -4z m-780 -196 c0 -22 -4 -40 -10 -40 -5 0 -10 18 -10 40 0 22 5 40 10 40
6 0 10 -18 10 -40z m-210 -25 c0 -8 -7 -15 -15 -15 -16 0 -20 12 -8 23 11 12
23 8 23 -8z m-50 -25 c0 -5 -7 -10 -15 -10 -8 0 -15 5 -15 10 0 6 7 10 15 10
8 0 15 -4 15 -10z m-19417 -97 c-7 -2 -19 -2 -25 0 -7 3 -2 5 12 5 14 0 19 -2
13 -5z m94 -29 c-3 -3 -12 -4 -19 -1 -8 3 -5 6 6 6 11 1 17 -2 13 -5z m18093
-120 c0 -17 -22 -14 -28 4 -2 7 3 12 12 12 9 0 16 -7 16 -16z m-52 -52 c2 -7
-3 -12 -12 -12 -9 0 -16 7 -16 16 0 17 22 14 28 -4z m-348 -52 l0 -40 -40 0
-40 0 0 40 0 40 40 0 40 0 0 -40z m80 -15 c0 -20 -5 -25 -25 -25 -29 0 -31 7
-8 32 22 25 33 23 33 -7z m-10480 -200 c0 -17 -2 -18 -24 -9 -23 9 -20 24 4
24 11 0 20 -7 20 -15z m7800 12 c0 -2 -9 -12 -20 -22 -19 -18 -20 -17 -20 3 0
15 6 22 20 22 11 0 20 -2 20 -3z m-7720 -22 c0 -16 -9 -19 -36 -8 -16 6 -16 7
2 14 29 11 34 10 34 -6z m5920 -145 c0 -6 -33 -10 -80 -10 -47 0 -80 4 -80 10
0 6 33 10 80 10 47 0 80 -4 80 -10z"/>
<path d="M29760 18920 l0 -40 40 0 40 0 0 40 0 40 -40 0 -40 0 0 -40z"/>
<path d="M29600 18870 c0 -5 18 -10 40 -10 22 0 40 5 40 10 0 6 -18 10 -40 10
-22 0 -40 -4 -40 -10z"/>
<path d="M27920 18730 c0 -5 -22 -10 -50 -10 -27 0 -50 -4 -50 -10 0 -5 23
-10 50 -10 49 0 50 -1 50 -30 0 -16 5 -30 10 -30 6 0 10 23 10 50 0 28 -4 50
-10 50 -5 0 -10 -4 -10 -10z"/>
<path d="M27760 18650 c0 -5 5 -10 10 -10 6 0 10 5 10 10 0 6 -4 10 -10 10 -5
0 -10 -4 -10 -10z"/>
<path d="M26880 18550 c0 -5 18 -10 40 -10 22 0 40 5 40 10 0 6 -18 10 -40 10
-22 0 -40 -4 -40 -10z"/>
<path d="M34480 18470 c0 -5 18 -10 40 -10 22 0 40 5 40 10 0 6 -18 10 -40 10
-22 0 -40 -4 -40 -10z"/>
<path d="M34800 18390 c0 -5 18 -10 40 -10 22 0 40 5 40 10 0 6 -18 10 -40 10
-22 0 -40 -4 -40 -10z"/>
<path d="M35120 18310 c0 -5 18 -10 40 -10 22 0 40 5 40 10 0 6 -18 10 -40 10
-22 0 -40 -4 -40 -10z"/>
<path d="M24560 18040 l0 -40 40 0 40 0 0 40 0 40 -40 0 -40 0 0 -40z"/>
<path d="M25040 18069 c0 -5 5 -7 10 -4 6 3 10 8 10 11 0 2 -4 4 -10 4 -5 0
-10 -5 -10 -11z"/>
<path d="M24160 17910 c0 -5 18 -10 40 -10 22 0 40 5 40 10 0 6 -18 10 -40 10
-22 0 -40 -4 -40 -10z"/>
<path d="M23840 17830 c0 -5 18 -10 40 -10 22 0 40 5 40 10 0 6 -18 10 -40 10
-22 0 -40 -4 -40 -10z"/>
<path d="M37280 17776 c0 -9 7 -16 16 -16 17 0 14 22 -4 28 -7 2 -12 -3 -12
-12z"/>
<path d="M37840 17575 l0 -55 95 0 c93 0 95 0 125 31 23 24 27 35 19 45 -14
18 -31 14 -44 -10 -16 -31 -39 -33 -33 -4 5 25 4 25 -63 22 -52 -3 -68 0 -73
11 -12 33 -26 12 -26 -40z"/>
<path d="M23120 17595 c0 -11 11 -15 40 -15 29 0 40 4 40 15 0 11 -11 15 -40
15 -29 0 -40 -4 -40 -15z"/>
<path d="M38162 17589 c-1 -9 -9 -19 -17 -23 -17 -6 -21 -46 -4 -46 6 0 9 -16
7 -37 -3 -35 -6 -38 -35 -41 -32 -3 -33 -2 -33 37 0 23 -4 41 -10 41 -15 0
-12 -70 4 -86 8 -8 31 -14 50 -14 33 0 41 8 37 33 -1 5 10 18 24 29 30 23 32
38 6 38 -16 0 -21 8 -24 43 -2 23 -4 35 -5 26z"/>
<path d="M23040 17509 c0 -5 5 -7 10 -4 6 3 10 8 10 11 0 2 -4 4 -10 4 -5 0
-10 -5 -10 -11z"/>
<path d="M38280 17436 c0 -14 20 -36 33 -36 4 0 7 10 5 22 -3 22 -38 35 -38
14z"/>
<path d="M38545 17270 c3 -5 8 -10 11 -10 2 0 4 5 4 10 0 6 -5 10 -11 10 -5 0
-7 -4 -4 -10z"/>
<path d="M39320 17192 c0 -10 22 -32 32 -32 4 0 8 9 8 20 0 13 -7 20 -20 20
-11 0 -20 -4 -20 -8z"/>
<path d="M21610 17030 c0 -5 18 -10 39 -10 22 0 43 5 46 10 4 6 -12 10 -39 10
-25 0 -46 -4 -46 -10z"/>
<path d="M21160 16890 l-35 -7 38 -2 c20 0 37 4 37 9 0 6 -1 9 -2 9 -2 -1 -19
-5 -38 -9z"/>
<path d="M21044 16791 c-2 -2 -4 -19 -4 -38 0 -32 1 -33 40 -33 38 0 40 2 40
30 0 28 2 30 40 30 22 0 40 3 40 8 0 8 -148 11 -156 3z"/>
<path d="M41265 16710 c3 -5 8 -10 11 -10 2 0 4 5 4 10 0 6 -5 10 -11 10 -5 0
-7 -4 -4 -10z"/>
<path d="M41840 16630 c0 -5 15 -10 34 -10 19 0 38 5 41 10 4 6 -10 10 -34 10
-23 0 -41 -4 -41 -10z"/>
<path d="M42467 16473 c-11 -10 -8 -73 3 -73 6 0 10 18 10 40 0 41 -2 45 -13
33z"/>
<path d="M42800 16330 c0 -5 5 -10 10 -10 6 0 10 5 10 10 0 6 -4 10 -10 10 -5
0 -10 -4 -10 -10z"/>
<path d="M43044 16308 c-3 -4 13 -8 35 -8 23 0 41 4 41 8 0 4 -16 8 -36 8 -19
0 -38 -4 -40 -8z"/>
<path d="M44465 15830 c3 -5 8 -10 11 -10 2 0 4 5 4 10 0 6 -5 10 -11 10 -5 0
-7 -4 -4 -10z"/>
<path d="M20785 15760 c28 -12 37 -12 30 0 -3 6 -16 10 -28 9 -21 0 -21 -1 -2
-9z"/>
<path d="M44640 15670 c0 -5 5 -10 10 -10 6 0 10 5 10 10 0 6 -4 10 -10 10 -5
0 -10 -4 -10 -10z"/>
<path d="M20110 15575 c13 -14 26 -23 28 -20 6 6 -33 45 -44 45 -4 0 3 -11 16
-25z"/>
<path d="M19360 15540 c0 -24 35 -28 44 -4 9 23 8 24 -19 24 -18 0 -25 -5 -25
-20z"/>
<path d="M19433 15533 c9 -9 20 -13 24 -9 4 4 1 11 -7 16 -25 16 -35 11 -17
-7z"/>
<path d="M19420 15510 c0 -5 5 -10 10 -10 6 0 10 5 10 10 0 6 -4 10 -10 10 -5
0 -10 -4 -10 -10z"/>
<path d="M45425 15270 c3 -5 8 -10 11 -10 2 0 4 5 4 10 0 6 -5 10 -11 10 -5 0
-7 -4 -4 -10z"/>
<path d="M18320 15193 c0 -21 2 -24 15 -13 8 7 15 16 15 20 0 4 -7 10 -15 14
-11 4 -15 -2 -15 -21z"/>
<path d="M46060 14840 c0 -22 5 -40 10 -40 6 0 10 18 10 40 0 22 -4 40 -10 40
-5 0 -10 -18 -10 -40z"/>
<path d="M26818 14613 c12 -2 32 -2 45 0 12 2 2 4 -23 4 -25 0 -35 -2 -22 -4z"/>
<path d="M26728 14603 c7 -3 16 -2 19 1 4 3 -2 6 -13 5 -11 0 -14 -3 -6 -6z"/>
<path d="M17680 14544 c0 -14 3 -14 15 -4 8 7 15 14 15 16 0 2 -7 4 -15 4 -8
0 -15 -7 -15 -16z"/>
<path d="M46720 13750 c0 -5 18 -10 40 -10 22 0 40 5 40 10 0 6 -18 10 -40 10
-22 0 -40 -4 -40 -10z"/>
<path d="M46860 13750 c0 -5 5 -10 10 -10 6 0 10 5 10 10 0 6 -4 10 -10 10 -5
0 -10 -4 -10 -10z"/>
<path d="M46800 13690 c0 -5 5 -10 10 -10 6 0 10 5 10 10 0 6 -4 10 -10 10 -5
0 -10 -4 -10 -10z"/>
<path d="M47120 13050 c0 -5 18 -10 40 -10 22 0 40 5 40 10 0 6 -18 10 -40 10
-22 0 -40 -4 -40 -10z"/>
<path d="M32968 12983 c7 -3 16 -2 19 1 4 3 -2 6 -13 5 -11 0 -14 -3 -6 -6z"/>
<path d="M19040 12815 c0 -8 7 -15 16 -15 14 0 14 3 4 15 -7 8 -14 15 -16 15
-2 0 -4 -7 -4 -15z"/>
<path d="M47260 12760 c0 -22 5 -40 10 -40 6 0 10 18 10 40 0 22 -4 40 -10 40
-5 0 -10 -18 -10 -40z"/>
<path d="M19360 12730 c0 -5 5 -10 11 -10 5 0 7 5 4 10 -3 6 -8 10 -11 10 -2
0 -4 -4 -4 -10z"/>
<path d="M19840 12570 c0 -5 5 -10 11 -10 5 0 7 5 4 10 -3 6 -8 10 -11 10 -2
0 -4 -4 -4 -10z"/>
<path d="M47200 12470 c0 -5 5 -10 10 -10 6 0 10 5 10 10 0 6 -4 10 -10 10 -5
0 -10 -4 -10 -10z"/>
<path d="M47260 12410 c0 -5 5 -10 10 -10 6 0 10 5 10 10 0 6 -4 10 -10 10 -5
0 -10 -4 -10 -10z"/>
<path d="M47120 12250 c0 -5 18 -10 40 -10 22 0 40 5 40 10 0 6 -18 10 -40 10
-22 0 -40 -4 -40 -10z"/>
<path d="M46782 11763 l3 -78 40 0 c39 0 40 1 43 38 3 36 3 37 -32 37 -34 0
-36 2 -36 34 0 19 -5 38 -10 41 -7 5 -10 -19 -8 -72z"/>
<path d="M46937 11803 c-13 -12 -7 -43 8 -43 9 0 15 9 15 25 0 24 -10 32 -23
18z"/>
<path d="M46880 11695 c0 -11 11 -15 40 -15 30 0 40 -4 40 -16 0 -17 22 -14
28 4 2 7 -3 12 -12 12 -9 0 -16 7 -16 15 0 11 -11 15 -40 15 -29 0 -40 -4 -40
-15z"/>
<path d="M46480 11504 c0 -17 22 -14 28 4 2 7 -3 12 -12 12 -9 0 -16 -7 -16
-16z"/>
<path d="M46320 11424 c0 -17 22 -14 28 4 2 7 -3 12 -12 12 -9 0 -16 -7 -16
-16z"/>
<path d="M46066 11301 c-4 -7 -5 -15 -2 -18 9 -9 19 4 14 18 -4 11 -6 11 -12
0z"/>
<path d="M46160 11295 c0 -11 11 -15 40 -15 29 0 40 4 40 15 0 11 -11 15 -40
15 -29 0 -40 -4 -40 -15z"/>
<path d="M46000 11215 c0 -11 11 -15 40 -15 29 0 40 4 40 15 0 11 -11 15 -40
15 -29 0 -40 -4 -40 -15z"/>
<path d="M43200 10655 c0 -11 11 -15 40 -15 29 0 40 4 40 15 0 11 -11 15 -40
15 -29 0 -40 -4 -40 -15z"/>
<path d="M38945 10330 c-3 -5 -1 -10 4 -10 6 0 11 5 11 10 0 6 -2 10 -4 10 -3
0 -8 -4 -11 -10z"/>
<path d="M39105 10330 c-4 -6 13 -10 44 -10 28 0 51 5 51 10 0 6 -20 10 -44
10 -25 0 -48 -4 -51 -10z"/>
<path d="M27388 12713 c7 -3 16 -2 19 1 4 3 -2 6 -13 5 -11 0 -14 -3 -6 -6z"/>
</g>
</svg>
